<svg width="28" height="28" viewBox="0 0 28 28" fill="none" xmlns="http://www.w3.org/2000/svg">
<g clip-path="url(#clip0_667_10695)">
<path d="M7.37523 0C6.83279 0 6.39307 0.43972 6.39307 0.982161V2.94643H8.35734V0.982161C8.35734 0.43972 7.91762 0 7.37523 0Z" fill="white"/>
<path d="M21.1247 0C20.5823 0 20.1426 0.43972 20.1426 0.982161V2.94643H22.1068V0.982161C22.1069 0.43972 21.6672 0 21.1247 0Z" fill="white"/>
<path d="M25.0536 2.94629H22.1071V6.87488C22.1071 7.41732 21.6674 7.85704 21.125 7.85704C20.5825 7.85704 20.1428 7.41732 20.1428 6.87488V2.94629H8.35712V6.87488C8.35712 7.41732 7.9174 7.85704 7.37496 7.85704C6.83252 7.85704 6.3928 7.41732 6.3928 6.87488V2.94629H3.44643C1.81916 2.94629 0.5 4.26545 0.5 5.89272V24.5534C0.5 26.1807 1.81916 27.4999 3.44643 27.4999H25.0536C26.6808 27.4999 28 26.1807 28 24.5534V5.89272C28 4.26545 26.6808 2.94629 25.0536 2.94629ZM26.0357 24.5534C26.0357 25.0959 25.596 25.5356 25.0535 25.5356H3.44643C2.90399 25.5356 2.46427 25.0959 2.46427 24.5534V11.7856H26.0357V24.5534Z" fill="white"/>
<path d="M8.35708 13.75H6.39281C5.85036 13.75 5.41064 14.1897 5.41064 14.7322C5.41064 15.2746 5.85036 15.7143 6.39281 15.7143H8.35708C8.89952 15.7143 9.33924 15.2746 9.33924 14.7322C9.33924 14.1897 8.89952 13.75 8.35708 13.75Z" fill="white"/>
<path d="M15.2321 13.75H13.2678C12.7254 13.75 12.2856 14.1897 12.2856 14.7322C12.2856 15.2746 12.7254 15.7143 13.2678 15.7143H15.2321C15.7745 15.7143 16.2142 15.2746 16.2142 14.7322C16.2142 14.1897 15.7745 13.75 15.2321 13.75Z" fill="white"/>
<path d="M22.1071 13.75H20.1428C19.6004 13.75 19.1606 14.1897 19.1606 14.7322C19.1606 15.2746 19.6004 15.7143 20.1428 15.7143H22.1071C22.6495 15.7143 23.0892 15.2746 23.0892 14.7322C23.0892 14.1897 22.6495 13.75 22.1071 13.75Z" fill="white"/>
<path d="M8.35708 17.6787H6.39281C5.85036 17.6787 5.41064 18.1184 5.41064 18.6609C5.41064 19.2033 5.85036 19.643 6.39281 19.643H8.35708C8.89952 19.643 9.33924 19.2033 9.33924 18.6609C9.33924 18.1184 8.89952 17.6787 8.35708 17.6787Z" fill="white"/>
<path d="M15.2321 17.6787H13.2678C12.7254 17.6787 12.2856 18.1184 12.2856 18.6609C12.2856 19.2033 12.7254 19.643 13.2678 19.643H15.2321C15.7745 19.643 16.2142 19.2033 16.2142 18.6609C16.2142 18.1184 15.7745 17.6787 15.2321 17.6787Z" fill="white"/>
<path d="M22.1071 17.6787H20.1428C19.6004 17.6787 19.1606 18.1184 19.1606 18.6609C19.1606 19.2033 19.6004 19.643 20.1428 19.643H22.1071C22.6495 19.643 23.0892 19.2033 23.0892 18.6609C23.0892 18.1184 22.6495 17.6787 22.1071 17.6787Z" fill="white"/>
<path d="M8.35708 21.6069H6.39281C5.85036 21.6069 5.41064 22.0467 5.41064 22.5891C5.41064 23.1315 5.85036 23.5712 6.39281 23.5712H8.35708C8.89952 23.5712 9.33924 23.1315 9.33924 22.589C9.33924 22.0466 8.89952 21.6069 8.35708 21.6069Z" fill="white"/>
<path d="M15.2321 21.6069H13.2678C12.7254 21.6069 12.2856 22.0467 12.2856 22.5891C12.2856 23.1315 12.7254 23.5713 13.2678 23.5713H15.2321C15.7745 23.5713 16.2142 23.1315 16.2142 22.5891C16.2142 22.0467 15.7745 21.6069 15.2321 21.6069Z" fill="white"/>
<path d="M22.1071 21.6069H20.1428C19.6004 21.6069 19.1606 22.0467 19.1606 22.5891C19.1606 23.1315 19.6004 23.5713 20.1428 23.5713H22.1071C22.6495 23.5713 23.0892 23.1315 23.0892 22.5891C23.0892 22.0467 22.6495 21.6069 22.1071 21.6069Z" fill="white"/>
</g>
<defs>
<clipPath id="clip0_667_10695">
<rect width="27.5" height="27.5" fill="white" transform="translate(0.5)"/>
</clipPath>
</defs>
</svg>
