<svg width="46" height="38" viewBox="0 0 46 38" fill="none" xmlns="http://www.w3.org/2000/svg">
<g clip-path="url(#clip0_667_7695)">
<rect width="46" height="37" transform="translate(0.000976562 0.5)" fill="#A0ADB2"/>
<path d="M11.5013 0.5C10.5939 0.5 9.8584 1.09162 9.8584 1.82145V4.46428H13.1441V1.82145C13.1441 1.09162 12.4086 0.5 11.5013 0.5Z" fill="white"/>
<path d="M34.5013 0.5C33.5939 0.5 32.8584 1.09162 32.8584 1.82145V4.46428H36.1441V1.82145C36.1442 1.09162 35.4086 0.5 34.5013 0.5Z" fill="white"/>
<path d="M41.0724 4.46436H36.1438V9.75009C36.1438 10.4799 35.4083 11.0715 34.5009 11.0715C33.5936 11.0715 32.8581 10.4799 32.8581 9.75009V4.46436H13.1438V9.75009C13.1438 10.4799 12.4083 11.0715 11.5009 11.0715C10.5935 11.0715 9.85802 10.4799 9.85802 9.75009V4.46436H4.92954C2.20757 4.46436 0.000976562 6.23922 0.000976562 8.42864V33.5358C0.000976562 35.7252 2.20757 37.5001 4.92954 37.5001H41.0724C43.7944 37.5001 46.001 35.7252 46.001 33.5358V8.42864C46.001 6.23922 43.7944 4.46436 41.0724 4.46436ZM42.7152 33.5358C42.7152 34.2656 41.9797 34.8573 41.0723 34.8573H4.92954C4.02219 34.8573 3.28666 34.2656 3.28666 33.5358V16.3572H42.7152V33.5358Z" fill="white"/>
<path d="M13.1434 19H9.85773C8.95038 19 8.21484 19.5916 8.21484 20.3215C8.21484 21.0513 8.95038 21.6429 9.85773 21.6429H13.1434C14.0508 21.6429 14.7863 21.0513 14.7863 20.3215C14.7863 19.5916 14.0508 19 13.1434 19Z" fill="white"/>
<path d="M24.6434 19H21.3577C20.4504 19 19.7148 19.5916 19.7148 20.3215C19.7148 21.0513 20.4504 21.6429 21.3577 21.6429H24.6434C25.5508 21.6429 26.2863 21.0513 26.2863 20.3215C26.2863 19.5916 25.5508 19 24.6434 19Z" fill="white"/>
<path d="M36.1434 19H32.8577C31.9504 19 31.2148 19.5916 31.2148 20.3215C31.2148 21.0513 31.9504 21.6429 32.8577 21.6429H36.1434C37.0508 21.6429 37.7863 21.0513 37.7863 20.3215C37.7863 19.5916 37.0507 19 36.1434 19Z" fill="white"/>
<path d="M13.1434 24.2856H9.85773C8.95038 24.2856 8.21484 24.8773 8.21484 25.6071C8.21484 26.3369 8.95038 26.9286 9.85773 26.9286H13.1434C14.0508 26.9286 14.7863 26.3369 14.7863 25.6071C14.7863 24.8773 14.0508 24.2856 13.1434 24.2856Z" fill="white"/>
<path d="M24.6434 24.2856H21.3577C20.4504 24.2856 19.7148 24.8773 19.7148 25.6071C19.7148 26.3369 20.4504 26.9286 21.3577 26.9286H24.6434C25.5508 26.9286 26.2863 26.3369 26.2863 25.6071C26.2863 24.8773 25.5508 24.2856 24.6434 24.2856Z" fill="white"/>
<path d="M36.1434 24.2856H32.8577C31.9504 24.2856 31.2148 24.8773 31.2148 25.6071C31.2148 26.3369 31.9504 26.9286 32.8577 26.9286H36.1434C37.0508 26.9286 37.7863 26.3369 37.7863 25.6071C37.7862 24.8773 37.0507 24.2856 36.1434 24.2856Z" fill="white"/>
<path d="M13.1434 29.5713H9.85773C8.95038 29.5713 8.21484 30.1629 8.21484 30.8927C8.21484 31.6226 8.95038 32.2141 9.85773 32.2141H13.1434C14.0508 32.2141 14.7863 31.6225 14.7863 30.8927C14.7863 30.1628 14.0508 29.5713 13.1434 29.5713Z" fill="white"/>
<path d="M24.6434 29.5713H21.3577C20.4504 29.5713 19.7148 30.1629 19.7148 30.8927C19.7148 31.6226 20.4504 32.2142 21.3577 32.2142H24.6434C25.5508 32.2142 26.2863 31.6226 26.2863 30.8927C26.2863 30.1629 25.5508 29.5713 24.6434 29.5713Z" fill="white"/>
<path d="M36.1434 29.5713H32.8577C31.9504 29.5713 31.2148 30.1629 31.2148 30.8927C31.2148 31.6226 31.9504 32.2142 32.8577 32.2142H36.1434C37.0508 32.2142 37.7863 31.6226 37.7863 30.8927C37.7863 30.1629 37.0507 29.5713 36.1434 29.5713Z" fill="white"/>
</g>
<defs>
<clipPath id="clip0_667_7695">
<rect width="46" height="37" fill="white" transform="translate(0.000976562 0.5)"/>
</clipPath>
</defs>
</svg>
