<svg width="86" height="75" viewBox="0 0 86 75" fill="none" xmlns="http://www.w3.org/2000/svg">
<path d="M82.4173 59.375C82.4173 61.0326 81.6623 62.6223 80.3182 63.7944C78.9742 64.9665 77.1514 65.625 75.2506 65.625H10.7507C8.84993 65.625 7.02706 64.9665 5.68305 63.7944C4.33904 62.6223 3.58398 61.0326 3.58398 59.375V25C3.58398 23.3424 4.33904 21.7527 5.68305 20.5806C7.02706 19.4085 8.84993 18.75 10.7507 18.75H25.084L32.2506 9.375H53.7506L60.9173 18.75H75.2506C77.1514 18.75 78.9742 19.4085 80.3182 20.5806C81.6623 21.7527 82.4173 23.3424 82.4173 25V59.375Z" stroke="black" stroke-width="2" stroke-linecap="round" stroke-linejoin="round"/>
<path d="M42.9993 53.125C50.9154 53.125 57.3327 47.5286 57.3327 40.625C57.3327 33.7214 50.9154 28.125 42.9993 28.125C35.0833 28.125 28.666 33.7214 28.666 40.625C28.666 47.5286 35.0833 53.125 42.9993 53.125Z" stroke="black" stroke-width="2" stroke-linecap="round" stroke-linejoin="round"/>
</svg>
