<svg width="1468" height="64" viewBox="0 0 1468 64" fill="none" xmlns="http://www.w3.org/2000/svg">
<g clip-path="url(#clip0_667_10318)">
<path d="M1463 31.7272C1463 14.7504 1449.34 1.00028 1432.5 1.00028C1415.66 1.00028 1402 14.7504 1402 31.7272C1402 48.704 1415.66 62.4541 1432.5 62.4541C1449.34 62.4541 1463 48.704 1463 31.7272Z" stroke="#F48C06" stroke-width="2"/>
<path d="M1442.66 31.0204C1443.05 31.411 1443.05 32.0441 1442.66 32.4346L1436.29 38.7986C1435.9 39.1891 1435.27 39.1891 1434.88 38.7986C1434.49 38.4081 1434.49 37.7749 1434.88 37.3844L1440.54 31.7275L1434.88 26.0707C1434.49 25.6802 1434.49 25.047 1434.88 24.6565C1435.27 24.2659 1435.9 24.2659 1436.29 24.6565L1442.66 31.0204ZM1422.26 30.7275L1441.95 30.7275L1441.95 32.7275L1422.26 32.7275L1422.26 30.7275Z" fill="#F48C06"/>
<rect x="1" y="-1" width="1461.95" height="61.4538" rx="30.7269" transform="matrix(1 0 0 -1 0 61.4541)" stroke="#F48C06" stroke-width="2"/>
</g>
<defs>
<clipPath id="clip0_667_10318">
<rect width="1468" height="63.4538" fill="white"/>
</clipPath>
</defs>
</svg>
