<svg width="106" height="112" viewBox="0 0 106 112" fill="none" xmlns="http://www.w3.org/2000/svg">
<g clip-path="url(#clip0_669_168)">
<path d="M53.2164 33.2751L57.4655 43.9623L59.5243 49.1426L64.7808 49.6093L75.6005 50.5893L67.3652 58.1964L63.3791 61.8832L64.5618 67.3901L67.0148 78.6374L57.7283 72.6637L53.2164 69.6769L48.7046 72.5704L39.4181 78.544L41.8711 67.2968L43.0538 61.7899L39.0676 58.103L30.8324 50.496L41.6521 49.5159L46.9086 49.0492L48.9674 43.869L53.2164 33.2751ZM53.2164 9.33398L40.9074 40.2755L9.41211 43.1223L33.3293 65.1967L26.1454 98.005L53.2164 80.5975L80.2875 98.005L73.1036 65.1967L97.0208 43.1223L65.5255 40.2755L53.2164 9.33398Z" fill="#C4C4C4"/>
</g>
<defs>
<clipPath id="clip0_669_168">
<rect width="105.13" height="112.005" fill="white" transform="translate(0.652344)"/>
</clipPath>
</defs>
</svg>
