<svg width="106" height="112" viewBox="0 0 106 112" fill="none" xmlns="http://www.w3.org/2000/svg">
<g clip-path="url(#clip0_669_171)">
<path d="M53.4332 33.2751L57.6823 43.9623L59.7411 49.1426L64.9976 49.6093L75.8173 50.5893L67.582 58.1964L63.5958 61.8832L64.7786 67.3901L67.2316 78.6374L57.9451 72.6637L53.4332 69.6769L48.9214 72.5704L39.6349 78.544L42.0879 67.2968L43.2706 61.7899L39.2844 58.103L31.0492 50.496L41.8689 49.5159L47.1254 49.0492L49.1842 43.869L53.4332 33.2751ZM53.4332 9.33398L41.1242 40.2755L9.62891 43.1223L33.5461 65.1967L26.3622 98.005L53.4332 80.5975L80.5043 98.005L73.3204 65.1967L97.2376 43.1223L65.7423 40.2755L53.4332 9.33398Z" fill="#C4C4C4"/>
</g>
<defs>
<clipPath id="clip0_669_171">
<rect width="105.13" height="112.005" fill="white" transform="translate(0.869141)"/>
</clipPath>
</defs>
</svg>
