<svg width="93" height="88" viewBox="0 0 93 88" fill="none" xmlns="http://www.w3.org/2000/svg">
<path d="M92.5 43.7202C92.5 67.5614 71.9346 86.9403 46.5 86.9403C21.0654 86.9403 0.5 67.5614 0.5 43.7202C0.5 19.8789 21.0654 0.5 46.5 0.5C71.9346 0.5 92.5 19.8789 92.5 43.7202Z" stroke="#F48C06"/>
<path d="M61.1571 44.4273C61.5476 44.0368 61.5476 43.4036 61.1571 43.0131L54.7931 36.6491C54.4026 36.2586 53.7694 36.2586 53.3789 36.6491C52.9884 37.0397 52.9884 37.6728 53.3789 38.0634L59.0357 43.7202L53.3789 49.3771C52.9884 49.7676 52.9884 50.4008 53.3789 50.7913C53.7694 51.1818 54.4026 51.1818 54.7931 50.7913L61.1571 44.4273ZM31.3875 44.7202L60.45 44.7202L60.45 42.7202L31.3875 42.7202L31.3875 44.7202Z" fill="#F48C06"/>
</svg>
