<svg width="221" height="80" viewBox="0 0 221 80" fill="none" xmlns="http://www.w3.org/2000/svg">
<path d="M0 40C0 17.9086 17.9086 0 40 0H180.114C202.206 0 220.114 17.9086 220.114 40C220.114 62.0914 202.206 80 180.114 80H40C17.9086 80 0 62.0914 0 40Z" fill="url(#paint0_linear_667_6127)"/>
<path d="M159.223 29.7041L155.335 43.0001H151.711L149.287 33.7121L146.863 43.0001H143.215L139.303 29.7041H142.711L145.063 39.8321L147.607 29.7041H151.159L153.655 39.8081L156.007 29.7041H159.223Z" fill="white"/>
<path d="M131.39 43.2163C130.11 43.2163 128.958 42.9363 127.934 42.3763C126.91 41.8003 126.102 40.9923 125.51 39.9523C124.934 38.9123 124.646 37.7123 124.646 36.3523C124.646 34.9923 124.942 33.7923 125.534 32.7523C126.142 31.7123 126.966 30.9123 128.006 30.3523C129.046 29.7763 130.206 29.4883 131.486 29.4883C132.766 29.4883 133.926 29.7763 134.966 30.3523C136.006 30.9123 136.822 31.7123 137.414 32.7523C138.022 33.7923 138.326 34.9923 138.326 36.3523C138.326 37.7123 138.014 38.9123 137.39 39.9523C136.782 40.9923 135.95 41.8003 134.894 42.3763C133.854 42.9363 132.686 43.2163 131.39 43.2163ZM131.39 40.2883C131.998 40.2883 132.566 40.1443 133.094 39.8563C133.638 39.5523 134.07 39.1043 134.39 38.5123C134.71 37.9203 134.87 37.2003 134.87 36.3523C134.87 35.0883 134.534 34.1203 133.862 33.4483C133.206 32.7603 132.398 32.4163 131.438 32.4163C130.478 32.4163 129.67 32.7603 129.014 33.4483C128.374 34.1203 128.054 35.0883 128.054 36.3523C128.054 37.6163 128.366 38.5923 128.99 39.2803C129.63 39.9523 130.43 40.2883 131.39 40.2883Z" fill="white"/>
<path d="M122.166 43.0001H118.806L111.198 31.5041V43.0001H107.838V26.2241H111.198L118.806 37.7441V26.2241H122.166V43.0001Z" fill="white"/>
<path d="M93.62 29.5122C95.204 29.5122 96.484 30.0162 97.46 31.0242C98.436 32.0162 98.924 33.4082 98.924 35.2002V43.0002H95.564V35.6562C95.564 34.6002 95.3 33.7922 94.772 33.2322C94.244 32.6562 93.524 32.3682 92.612 32.3682C91.684 32.3682 90.948 32.6562 90.404 33.2322C89.876 33.7922 89.612 34.6002 89.612 35.6562V43.0002H86.252V29.7042H89.612V31.3602C90.06 30.7842 90.628 30.3362 91.316 30.0162C92.02 29.6802 92.788 29.5122 93.62 29.5122Z" fill="white"/>
<path d="M81.2759 28.1201C80.6839 28.1201 80.1879 27.9361 79.7879 27.5681C79.4039 27.1841 79.2119 26.7121 79.2119 26.1521C79.2119 25.5921 79.4039 25.1281 79.7879 24.7601C80.1879 24.3761 80.6839 24.1841 81.2759 24.1841C81.8679 24.1841 82.3559 24.3761 82.7399 24.7601C83.1399 25.1281 83.3399 25.5921 83.3399 26.1521C83.3399 26.7121 83.1399 27.1841 82.7399 27.5681C82.3559 27.9361 81.8679 28.1201 81.2759 28.1201ZM82.9319 29.7041V43.0001H79.5719V29.7041H82.9319Z" fill="white"/>
<path d="M70.1717 43.2163C68.8917 43.2163 67.7397 42.9363 66.7157 42.3763C65.6917 41.8003 64.8837 40.9923 64.2917 39.9523C63.7157 38.9123 63.4277 37.7123 63.4277 36.3523C63.4277 34.9923 63.7237 33.7923 64.3157 32.7523C64.9237 31.7123 65.7477 30.9123 66.7877 30.3523C67.8277 29.7763 68.9877 29.4883 70.2677 29.4883C71.5477 29.4883 72.7077 29.7763 73.7477 30.3523C74.7877 30.9123 75.6037 31.7123 76.1957 32.7523C76.8037 33.7923 77.1077 34.9923 77.1077 36.3523C77.1077 37.7123 76.7957 38.9123 76.1717 39.9523C75.5637 40.9923 74.7317 41.8003 73.6757 42.3763C72.6357 42.9363 71.4677 43.2163 70.1717 43.2163ZM70.1717 40.2883C70.7797 40.2883 71.3477 40.1443 71.8757 39.8563C72.4197 39.5523 72.8517 39.1043 73.1717 38.5123C73.4917 37.9203 73.6517 37.2003 73.6517 36.3523C73.6517 35.0883 73.3157 34.1203 72.6437 33.4483C71.9877 32.7603 71.1797 32.4163 70.2197 32.4163C69.2597 32.4163 68.4517 32.7603 67.7957 33.4483C67.1557 34.1203 66.8357 35.0883 66.8357 36.3523C66.8357 37.6163 67.1477 38.5923 67.7717 39.2803C68.4117 39.9523 69.2117 40.2883 70.1717 40.2883Z" fill="white"/>
<path d="M60.3481 26.248V38.008C60.3481 39.64 59.8761 40.912 58.9321 41.824C57.9881 42.72 56.7241 43.168 55.1401 43.168C53.5401 43.168 52.2441 42.704 51.2521 41.776C50.2761 40.848 49.7881 39.552 49.7881 37.888H53.1481C53.1641 38.608 53.3321 39.168 53.6521 39.568C53.9881 39.968 54.4681 40.168 55.0921 40.168C55.7001 40.168 56.1641 39.976 56.4841 39.592C56.8041 39.208 56.9641 38.68 56.9641 38.008V26.248H60.3481Z" fill="white"/>
<defs>
<linearGradient id="paint0_linear_667_6127" x1="110.057" y1="0" x2="110.057" y2="80" gradientUnits="userSpaceOnUse">
<stop stop-color="#FFBE73"/>
<stop offset="1" stop-color="#FFA031"/>
</linearGradient>
</defs>
</svg>
