<svg width="149" height="151" viewBox="0 0 149 151" fill="none" xmlns="http://www.w3.org/2000/svg">
<g filter="url(#filter0_d_667_10647)">
<path d="M40 46.3145C40 38.4088 46.268 32 54 32H95C102.732 32 109 38.4088 109 46.3145V88.2357C109 96.1414 102.732 102.55 95 102.55H54C46.268 102.55 40 96.1414 40 88.2357V46.3145Z" fill="#F3627C"/>
</g>
<path d="M51 53.887C51 49.4821 54.6347 45.9111 59.1184 45.9111H90.8816C95.3653 45.9111 99 49.4821 99 53.887V82.6502C99 87.0551 95.3653 90.6261 90.8816 90.6261H59.1184C54.6347 90.6261 51 87.0551 51 82.6502V53.887Z" fill="white"/>
<path fill-rule="evenodd" clip-rule="evenodd" d="M75 53.8608C76.1046 53.8608 77 54.7775 77 55.9082V80.6298C77 81.7605 76.1046 82.6771 75 82.6771C73.8954 82.6771 73 81.7605 73 80.6298V55.9082C73 54.7775 73.8954 53.8608 75 53.8608Z" fill="#F25471"/>
<path fill-rule="evenodd" clip-rule="evenodd" d="M66 57.8354C67.1046 57.8354 68 58.7686 68 59.9197L68 80.5928C68 81.7439 67.1046 82.6771 66 82.6771C64.8954 82.6771 64 81.7439 64 80.5928L64 59.9197C64 58.7686 64.8954 57.8354 66 57.8354Z" fill="#F25471"/>
<path fill-rule="evenodd" clip-rule="evenodd" d="M83 62.8037C84.1046 62.8037 85 63.7572 85 64.9335V80.5473C85 81.7235 84.1046 82.677 83 82.677C81.8954 82.677 81 81.7235 81 80.5473V64.9335C81 63.7572 81.8954 62.8037 83 62.8037Z" fill="#F25471"/>
<defs>
<filter id="filter0_d_667_10647" x="0" y="0" width="149" height="150.55" filterUnits="userSpaceOnUse" color-interpolation-filters="sRGB">
<feFlood flood-opacity="0" result="BackgroundImageFix"/>
<feColorMatrix in="SourceAlpha" type="matrix" values="0 0 0 0 0 0 0 0 0 0 0 0 0 0 0 0 0 0 127 0" result="hardAlpha"/>
<feOffset dy="8"/>
<feGaussianBlur stdDeviation="20"/>
<feColorMatrix type="matrix" values="0 0 0 0 0.825 0 0 0 0 0.300438 0 0 0 0 0.396718 0 0 0 0.26 0"/>
<feBlend mode="normal" in2="BackgroundImageFix" result="effect1_dropShadow_667_10647"/>
<feBlend mode="normal" in="SourceGraphic" in2="effect1_dropShadow_667_10647" result="shape"/>
</filter>
</defs>
</svg>
