<svg width="181" height="182" viewBox="0 0 181 182" fill="none" xmlns="http://www.w3.org/2000/svg">
<g filter="url(#filter0_d_667_10727)">
<ellipse cx="90.5" cy="75" rx="50" ry="51" fill="#637BFF" fill-opacity="0.2"/>
</g>
<path d="M79.4699 58C80.309 58 80.9893 58.5289 80.9893 59.1812V61.564C82.337 61.5437 83.8476 61.5437 85.5473 61.5437H93.6506C95.3502 61.5437 96.8609 61.5437 98.2086 61.564V59.1812C98.2086 58.5289 98.8888 58 99.728 58C100.567 58 101.247 58.5289 101.247 59.1812V61.6685C104.163 61.8501 106.077 62.2956 107.484 63.3889C108.89 64.4823 109.463 65.9705 109.696 68.2374L109.857 69.4186H71.367H69.5015V68.2374C69.7349 65.9705 70.308 64.4823 71.7143 63.3889C73.1206 62.2956 75.0348 61.8501 77.9506 61.6685V59.1812C77.9506 58.5289 78.6308 58 79.4699 58Z" fill="#F48C06"/>
<path opacity="0.5" d="M109.856 77.5748V74.3123C109.856 72.9435 109.85 70.5037 109.824 69.4185H69.5202C69.4941 70.5037 69.5007 72.9435 69.5007 74.3123V77.5748C69.5007 83.7265 69.5007 86.8023 71.8647 88.7135C74.2287 90.6246 78.0335 90.6246 85.6431 90.6246H93.7142C101.324 90.6246 105.129 90.6246 107.493 88.7135C109.856 86.8023 109.856 83.7265 109.856 77.5748Z" fill="#F48C06"/>
<path d="M101.788 82.4681C101.788 83.3691 100.884 84.0994 99.7697 84.0994C98.6553 84.0994 97.752 83.3691 97.752 82.4681C97.752 81.5672 98.6553 80.8369 99.7697 80.8369C100.884 80.8369 101.788 81.5672 101.788 82.4681Z" fill="#F48C06"/>
<path d="M101.788 75.9432C101.788 76.8442 100.884 77.5745 99.7697 77.5745C98.6553 77.5745 97.752 76.8442 97.752 75.9432C97.752 75.0423 98.6553 74.312 99.7697 74.312C100.884 74.312 101.788 75.0423 101.788 75.9432Z" fill="#F48C06"/>
<path d="M91.6982 82.4681C91.6982 83.3691 90.7948 84.0994 89.6804 84.0994C88.566 84.0994 87.6626 83.3691 87.6626 82.4681C87.6626 81.5672 88.566 80.8369 89.6804 80.8369C90.7948 80.8369 91.6982 81.5672 91.6982 82.4681Z" fill="#F48C06"/>
<path d="M91.6982 75.9432C91.6982 76.8442 90.7948 77.5745 89.6804 77.5745C88.566 77.5745 87.6626 76.8442 87.6626 75.9432C87.6626 75.0423 88.566 74.312 89.6804 74.312C90.7948 74.312 91.6982 75.0423 91.6982 75.9432Z" fill="#F48C06"/>
<path d="M81.6088 82.4681C81.6088 83.3691 80.7054 84.0994 79.591 84.0994C78.4766 84.0994 77.5732 83.3691 77.5732 82.4681C77.5732 81.5672 78.4766 80.8369 79.591 80.8369C80.7054 80.8369 81.6088 81.5672 81.6088 82.4681Z" fill="#F48C06"/>
<path d="M81.6088 75.9432C81.6088 76.8442 80.7054 77.5745 79.591 77.5745C78.4766 77.5745 77.5732 76.8442 77.5732 75.9432C77.5732 75.0423 78.4766 74.312 79.591 74.312C80.7054 74.312 81.6088 75.0423 81.6088 75.9432Z" fill="#F48C06"/>
<defs>
<filter id="filter0_d_667_10727" x="0.5" y="0" width="180" height="182" filterUnits="userSpaceOnUse" color-interpolation-filters="sRGB">
<feFlood flood-opacity="0" result="BackgroundImageFix"/>
<feColorMatrix in="SourceAlpha" type="matrix" values="0 0 0 0 0 0 0 0 0 0 0 0 0 0 0 0 0 0 127 0" result="hardAlpha"/>
<feOffset dy="16"/>
<feGaussianBlur stdDeviation="20"/>
<feColorMatrix type="matrix" values="0 0 0 0 0.146118 0 0 0 0 0.172389 0 0 0 0 0.441667 0 0 0 0.1 0"/>
<feBlend mode="normal" in2="BackgroundImageFix" result="effect1_dropShadow_667_10727"/>
<feBlend mode="normal" in="SourceGraphic" in2="effect1_dropShadow_667_10727" result="shape"/>
</filter>
</defs>
</svg>
