<svg width="111" height="20" viewBox="0 0 111 20" fill="none" xmlns="http://www.w3.org/2000/svg">
<path d="M110.223 5.7041L106.335 19.0001H102.711L100.287 9.7121L97.8627 19.0001H94.2147L90.3027 5.7041H93.7107L96.0627 15.8321L98.6067 5.7041H102.159L104.655 15.8081L107.007 5.7041H110.223Z" fill="white"/>
<path d="M82.3905 19.2163C81.1105 19.2163 79.9585 18.9363 78.9345 18.3763C77.9105 17.8003 77.1025 16.9923 76.5105 15.9523C75.9345 14.9123 75.6465 13.7123 75.6465 12.3523C75.6465 10.9923 75.9425 9.79228 76.5345 8.75228C77.1425 7.71228 77.9665 6.91228 79.0065 6.35228C80.0465 5.77628 81.2065 5.48828 82.4865 5.48828C83.7665 5.48828 84.9265 5.77628 85.9665 6.35228C87.0065 6.91228 87.8225 7.71228 88.4145 8.75228C89.0225 9.79228 89.3265 10.9923 89.3265 12.3523C89.3265 13.7123 89.0145 14.9123 88.3905 15.9523C87.7825 16.9923 86.9505 17.8003 85.8945 18.3763C84.8545 18.9363 83.6865 19.2163 82.3905 19.2163ZM82.3905 16.2883C82.9985 16.2883 83.5665 16.1443 84.0945 15.8563C84.6385 15.5523 85.0705 15.1043 85.3905 14.5123C85.7105 13.9203 85.8705 13.2003 85.8705 12.3523C85.8705 11.0883 85.5345 10.1203 84.8625 9.44828C84.2065 8.76028 83.3985 8.41628 82.4385 8.41628C81.4785 8.41628 80.6705 8.76028 80.0145 9.44828C79.3745 10.1203 79.0545 11.0883 79.0545 12.3523C79.0545 13.6163 79.3665 14.5923 79.9905 15.2803C80.6305 15.9523 81.4305 16.2883 82.3905 16.2883Z" fill="white"/>
<path d="M73.1659 19.0001H69.8059L62.1979 7.50412V19.0001H58.8379V2.22412H62.1979L69.8059 13.7441V2.22412H73.1659V19.0001Z" fill="white"/>
<path d="M44.62 5.51221C46.204 5.51221 47.484 6.01621 48.46 7.02421C49.436 8.01621 49.924 9.40821 49.924 11.2002V19.0002H46.564V11.6562C46.564 10.6002 46.3 9.79221 45.772 9.23221C45.244 8.65621 44.524 8.36821 43.612 8.36821C42.684 8.36821 41.948 8.65621 41.404 9.23221C40.876 9.79221 40.612 10.6002 40.612 11.6562V19.0002H37.252V5.70421H40.612V7.36021C41.06 6.78421 41.628 6.33621 42.316 6.01621C43.02 5.68021 43.788 5.51221 44.62 5.51221Z" fill="white"/>
<path d="M32.2759 4.12008C31.6839 4.12008 31.1879 3.93608 30.7879 3.56808C30.4039 3.18408 30.2119 2.71208 30.2119 2.15208C30.2119 1.59208 30.4039 1.12808 30.7879 0.760082C31.1879 0.376082 31.6839 0.184082 32.2759 0.184082C32.8679 0.184082 33.3559 0.376082 33.7399 0.760082C34.1399 1.12808 34.3399 1.59208 34.3399 2.15208C34.3399 2.71208 34.1399 3.18408 33.7399 3.56808C33.3559 3.93608 32.8679 4.12008 32.2759 4.12008ZM33.9319 5.70408V19.0001H30.5719V5.70408H33.9319Z" fill="white"/>
<path d="M21.1717 19.2163C19.8917 19.2163 18.7397 18.9363 17.7157 18.3763C16.6917 17.8003 15.8837 16.9923 15.2917 15.9523C14.7157 14.9123 14.4277 13.7123 14.4277 12.3523C14.4277 10.9923 14.7237 9.79228 15.3157 8.75228C15.9237 7.71228 16.7477 6.91228 17.7877 6.35228C18.8277 5.77628 19.9877 5.48828 21.2677 5.48828C22.5477 5.48828 23.7077 5.77628 24.7477 6.35228C25.7877 6.91228 26.6037 7.71228 27.1957 8.75228C27.8037 9.79228 28.1077 10.9923 28.1077 12.3523C28.1077 13.7123 27.7957 14.9123 27.1717 15.9523C26.5637 16.9923 25.7317 17.8003 24.6757 18.3763C23.6357 18.9363 22.4677 19.2163 21.1717 19.2163ZM21.1717 16.2883C21.7797 16.2883 22.3477 16.1443 22.8757 15.8563C23.4197 15.5523 23.8517 15.1043 24.1717 14.5123C24.4917 13.9203 24.6517 13.2003 24.6517 12.3523C24.6517 11.0883 24.3157 10.1203 23.6437 9.44828C22.9877 8.76028 22.1797 8.41628 21.2197 8.41628C20.2597 8.41628 19.4517 8.76028 18.7957 9.44828C18.1557 10.1203 17.8357 11.0883 17.8357 12.3523C17.8357 13.6163 18.1477 14.5923 18.7717 15.2803C19.4117 15.9523 20.2117 16.2883 21.1717 16.2883Z" fill="white"/>
<path d="M11.3481 2.24805V14.008C11.3481 15.64 10.8761 16.912 9.93209 17.824C8.98809 18.72 7.72409 19.168 6.14009 19.168C4.54009 19.168 3.24409 18.704 2.25209 17.776C1.27609 16.848 0.788086 15.552 0.788086 13.888H4.14809C4.16409 14.608 4.33209 15.168 4.65209 15.568C4.98809 15.968 5.46809 16.168 6.09209 16.168C6.70009 16.168 7.16409 15.976 7.48409 15.592C7.80409 15.208 7.96409 14.68 7.96409 14.008V2.24805H11.3481Z" fill="white"/>
</svg>
