<svg width="17" height="16" viewBox="0 0 17 16" fill="none" xmlns="http://www.w3.org/2000/svg">
<g clip-path="url(#clip0_667_10798)">
<path d="M15.6851 1.29315L12.5291 0.596824C12.1862 0.521388 11.8342 0.692569 11.6946 1.00011L10.238 4.24965C10.1105 4.53398 10.1955 4.86764 10.4473 5.06203L12.2863 6.50111C11.1939 8.72647 9.28508 10.5775 6.90896 11.6423L5.40378 9.88411C5.19743 9.6433 4.85148 9.56206 4.55408 9.68392L1.15529 11.0766C0.830581 11.2129 0.651537 11.5495 0.730438 11.8774L1.45875 14.8948C1.53462 15.2081 1.82594 15.4344 2.16886 15.4344C9.94057 15.4344 16.2496 9.41409 16.2496 1.97207C16.2496 1.64712 16.0159 1.36569 15.6851 1.29315Z" fill="white"/>
</g>
<defs>
<clipPath id="clip0_667_10798">
<rect x="0.712402" y="0.580078" width="15.5373" height="14.855" fill="white"/>
</clipPath>
</defs>
</svg>
