<svg width="41" height="42" viewBox="0 0 41 42" fill="none" xmlns="http://www.w3.org/2000/svg">
<path d="M17.5973 24.3193L34.3408 7.58194M18.0732 25.072L21.8698 32.6654C22.7874 34.5003 23.2461 35.4178 23.824 35.6638C24.3256 35.8774 24.8989 35.8386 25.3673 35.5598C25.907 35.2385 26.2384 34.2676 26.9014 32.3261L34.0749 11.3179C34.6526 9.62625 34.9413 8.78041 34.7437 8.22086C34.5716 7.73409 34.1888 7.35118 33.7021 7.1792C33.1424 6.98151 32.2966 7.27034 30.6049 7.84798L9.59671 15.0215C7.6552 15.6845 6.68444 16.016 6.36309 16.5556C6.0842 17.024 6.04556 17.5973 6.25907 18.0988C6.5051 18.6767 7.42259 19.1355 9.25758 20.0529L16.8509 23.8497C17.1533 24.0009 17.3045 24.0764 17.4353 24.1773C17.5517 24.267 17.6559 24.3712 17.7454 24.4874C17.8465 24.6184 17.922 24.7696 18.0732 25.072Z" stroke="url(#paint0_linear_667_10566)" stroke-width="3" stroke-linecap="round" stroke-linejoin="round"/>
<defs>
<linearGradient id="paint0_linear_667_10566" x1="20.4641" y1="7.11719" x2="20.4641" y2="35.8003" gradientUnits="userSpaceOnUse">
<stop stop-color="#FFBE73"/>
<stop offset="1" stop-color="#FFA031"/>
</linearGradient>
</defs>
</svg>
