<svg width="41" height="33" viewBox="0 0 41 33" fill="none" xmlns="http://www.w3.org/2000/svg">
<path d="M9.96991 0C10.809 0 11.4893 0.528861 11.4893 1.18124V3.56403C12.837 3.5437 14.3476 3.5437 16.0473 3.5437H24.1506C25.8502 3.5437 27.3609 3.5437 28.7086 3.56403V1.18124C28.7086 0.528861 29.3888 0 30.228 0C31.067 0 31.7474 0.528861 31.7474 1.18124V3.66854C34.6631 3.85006 36.5773 4.29557 37.9835 5.38892C39.3899 6.48227 39.963 7.97046 40.1964 10.2374L40.3573 11.4186H1.86703H0.00146484V10.2374C0.234943 7.97046 0.807975 6.48227 2.21427 5.38892C3.62059 4.29557 5.53477 3.85006 8.45056 3.66854V1.18124C8.45056 0.528861 9.13079 0 9.96991 0Z" fill="#F48C06"/>
<path opacity="0.5" d="M40.3565 19.5748V16.3123C40.3565 14.9435 40.35 12.5037 40.324 11.4185H0.0201976C-0.00585203 12.5037 0.00074595 14.9435 0.00074595 16.3123V19.5748C0.00074595 25.7265 0.000745912 28.8023 2.36473 30.7135C4.72871 32.6246 8.5335 32.6246 16.1431 32.6246H24.2142C31.8239 32.6246 35.6286 32.6246 37.9926 30.7135C40.3565 28.8023 40.3565 25.7265 40.3565 19.5748Z" fill="#F48C06"/>
<path d="M32.2875 24.4681C32.2875 25.3691 31.3842 26.0994 30.2697 26.0994C29.1553 26.0994 28.252 25.3691 28.252 24.4681C28.252 23.5672 29.1553 22.8369 30.2697 22.8369C31.3842 22.8369 32.2875 23.5672 32.2875 24.4681Z" fill="#F48C06"/>
<path d="M32.2875 17.9432C32.2875 18.8442 31.3842 19.5745 30.2697 19.5745C29.1553 19.5745 28.252 18.8442 28.252 17.9432C28.252 17.0423 29.1553 16.312 30.2697 16.312C31.3842 16.312 32.2875 17.0423 32.2875 17.9432Z" fill="#F48C06"/>
<path d="M22.1982 24.4681C22.1982 25.3691 21.2948 26.0994 20.1804 26.0994C19.066 26.0994 18.1626 25.3691 18.1626 24.4681C18.1626 23.5672 19.066 22.8369 20.1804 22.8369C21.2948 22.8369 22.1982 23.5672 22.1982 24.4681Z" fill="#F48C06"/>
<path d="M22.1982 17.9432C22.1982 18.8442 21.2948 19.5745 20.1804 19.5745C19.066 19.5745 18.1626 18.8442 18.1626 17.9432C18.1626 17.0423 19.066 16.312 20.1804 16.312C21.2948 16.312 22.1982 17.0423 22.1982 17.9432Z" fill="#F48C06"/>
<path d="M12.1088 24.4681C12.1088 25.3691 11.2054 26.0994 10.091 26.0994C8.97665 26.0994 8.07324 25.3691 8.07324 24.4681C8.07324 23.5672 8.97665 22.8369 10.091 22.8369C11.2054 22.8369 12.1088 23.5672 12.1088 24.4681Z" fill="#F48C06"/>
<path d="M12.1088 17.9432C12.1088 18.8442 11.2054 19.5745 10.091 19.5745C8.97665 19.5745 8.07324 18.8442 8.07324 17.9432C8.07324 17.0423 8.97665 16.312 10.091 16.312C11.2054 16.312 12.1088 17.0423 12.1088 17.9432Z" fill="#F48C06"/>
</svg>
