<svg width="33" height="26" viewBox="0 0 33 26" fill="none" xmlns="http://www.w3.org/2000/svg">
<path d="M8.40516 0C9.07051 0 9.60989 0.419345 9.60989 0.936629V2.82599C10.6785 2.80987 11.8763 2.80987 13.2241 2.80987H19.6493C20.9969 2.80987 22.1948 2.80987 23.2634 2.82599V0.936629C23.2634 0.419345 23.8028 0 24.4682 0C25.1334 0 25.6729 0.419345 25.6729 0.936629V2.90886C27.9849 3.05279 29.5027 3.40604 30.6177 4.27298C31.7329 5.13992 32.1873 6.31994 32.3724 8.11743L32.4999 9.05406H1.98022H0.500977V8.11743C0.686106 6.31994 1.14047 5.13992 2.25556 4.27298C3.37066 3.40604 4.88845 3.05279 7.20043 2.90886V0.936629C7.20043 0.419345 7.73981 0 8.40516 0Z" fill="#23BDEE"/>
<path opacity="0.5" d="M32.4995 15.521V12.9341C32.4995 11.8488 32.4944 9.9142 32.4737 9.05371H0.516015C0.49536 9.9142 0.500591 11.8488 0.500591 12.9341V15.521C0.500591 20.3988 0.500591 22.8377 2.37504 24.3531C4.24949 25.8685 7.26638 25.8685 13.3002 25.8685H19.6999C25.7338 25.8685 28.7506 25.8685 30.6251 24.3531C32.4995 22.8377 32.4995 20.3988 32.4995 15.521Z" fill="#23BDEE"/>
<path d="M26.1013 19.4013C26.1013 20.1157 25.385 20.6948 24.5013 20.6948C23.6177 20.6948 22.9014 20.1157 22.9014 19.4013C22.9014 18.687 23.6177 18.1079 24.5013 18.1079C25.385 18.1079 26.1013 18.687 26.1013 19.4013Z" fill="#23BDEE"/>
<path d="M26.1013 14.2275C26.1013 14.9419 25.385 15.521 24.5013 15.521C23.6177 15.521 22.9014 14.9419 22.9014 14.2275C22.9014 13.5132 23.6177 12.9341 24.5013 12.9341C25.385 12.9341 26.1013 13.5132 26.1013 14.2275Z" fill="#23BDEE"/>
<path d="M18.1013 19.4013C18.1013 20.1157 17.385 20.6948 16.5013 20.6948C15.6177 20.6948 14.9014 20.1157 14.9014 19.4013C14.9014 18.687 15.6177 18.1079 16.5013 18.1079C17.385 18.1079 18.1013 18.687 18.1013 19.4013Z" fill="#23BDEE"/>
<path d="M18.1013 14.2275C18.1013 14.9419 17.385 15.521 16.5013 15.521C15.6177 15.521 14.9014 14.9419 14.9014 14.2275C14.9014 13.5132 15.6177 12.9341 16.5013 12.9341C17.385 12.9341 18.1013 13.5132 18.1013 14.2275Z" fill="#23BDEE"/>
<path d="M10.1013 19.4013C10.1013 20.1157 9.38493 20.6948 8.50131 20.6948C7.6177 20.6948 6.90137 20.1157 6.90137 19.4013C6.90137 18.687 7.6177 18.1079 8.50131 18.1079C9.38493 18.1079 10.1013 18.687 10.1013 19.4013Z" fill="#23BDEE"/>
<path d="M10.1013 14.2275C10.1013 14.9419 9.38493 15.521 8.50131 15.521C7.6177 15.521 6.90137 14.9419 6.90137 14.2275C6.90137 13.5132 7.6177 12.9341 8.50131 12.9341C9.38493 12.9341 10.1013 13.5132 10.1013 14.2275Z" fill="#23BDEE"/>
</svg>
