<svg width="35" height="29" viewBox="0 0 35 29" fill="none" xmlns="http://www.w3.org/2000/svg">
<path opacity="0.5" d="M0.5 11.4099C0.5 6.03123 0.5 3.34189 2.72598 1.67094C4.95198 1.70021e-07 8.53464 0 15.7 0H19.5C26.6653 0 30.2481 1.70021e-07 32.474 1.67094C34.7 3.34189 34.7 6.03123 34.7 11.4099V17.1149C34.7 22.4935 34.7 25.183 32.474 26.8538C30.2481 28.5248 26.6653 28.5248 19.5 28.5248H15.7C8.53464 28.5248 4.95198 28.5248 2.72598 26.8538C0.5 25.183 0.5 22.4935 0.5 17.1149V11.4099Z" fill="#637BFF"/>
<path fill-rule="evenodd" clip-rule="evenodd" d="M8.5752 14.263C8.5752 13.672 9.2132 13.1929 10.0002 13.1929H25.2002C25.9872 13.1929 26.6252 13.672 26.6252 14.263C26.6252 14.8541 25.9872 15.3332 25.2002 15.3332H10.0002C9.2132 15.3332 8.5752 14.8541 8.5752 14.263Z" fill="#637BFF"/>
<path fill-rule="evenodd" clip-rule="evenodd" d="M8.5752 8.55797C8.5752 7.96693 9.2132 7.48779 10.0002 7.48779H25.2002C25.9872 7.48779 26.6252 7.96693 26.6252 8.55797C26.6252 9.14901 25.9872 9.62814 25.2002 9.62814H10.0002C9.2132 9.62814 8.5752 9.14901 8.5752 8.55797Z" fill="#637BFF"/>
<path fill-rule="evenodd" clip-rule="evenodd" d="M8.5752 19.9676C8.5752 19.3766 9.2132 18.8975 10.0002 18.8975H19.5002C20.2872 18.8975 20.9252 19.3766 20.9252 19.9676C20.9252 20.5587 20.2872 21.0378 19.5002 21.0378H10.0002C9.2132 21.0378 8.5752 20.5587 8.5752 19.9676Z" fill="#637BFF"/>
</svg>
