<svg width="216" height="221" viewBox="0 0 216 221" fill="none" xmlns="http://www.w3.org/2000/svg">
<path d="M108.001 55.2498C115.088 55.2498 122.016 57.4101 127.909 61.4574C133.801 65.5047 138.394 71.2572 141.106 77.9877C143.818 84.7181 144.528 92.124 143.145 99.269C141.763 106.414 138.35 112.977 133.339 118.128C128.327 123.28 121.942 126.788 114.991 128.209C108.04 129.63 100.835 128.901 94.2878 126.113C87.7401 123.325 82.1437 118.604 78.2063 112.547C74.2689 106.489 72.1673 99.3681 72.1673 92.0832C72.1673 82.3144 75.9426 72.9457 82.6626 66.0381C89.3827 59.1305 98.497 55.2498 108.001 55.2498ZM108.001 110.5C111.544 110.5 115.008 109.42 117.955 107.396C120.901 105.372 123.197 102.496 124.553 99.1309C125.91 95.7657 126.264 92.0627 125.573 88.4903C124.882 84.9178 123.175 81.6362 120.67 79.0606C118.164 76.485 114.971 74.731 111.496 74.0204C108.02 73.3098 104.418 73.6745 101.144 75.0684C97.8704 76.4623 95.0722 78.8228 93.1034 81.8514C91.1347 84.88 90.0839 88.4407 90.0839 92.0832C90.0839 96.9676 91.9716 101.652 95.3316 105.106C98.6916 108.56 103.249 110.5 108.001 110.5ZM108.001 18.4165C125.719 18.4165 143.039 23.8171 157.77 33.9353C172.502 44.0536 183.984 58.435 190.765 75.2611C197.545 92.0871 199.319 110.602 195.863 128.464C192.406 146.327 183.874 162.734 171.346 175.613C158.817 188.491 142.855 197.261 125.477 200.814C108.1 204.367 90.0878 202.543 73.7186 195.574C57.3493 188.604 43.3584 176.802 33.5148 161.659C23.6713 146.516 18.4173 128.712 18.4173 110.5C18.4173 98.4073 20.7344 86.4331 25.2364 75.2611C29.7384 64.089 36.3371 53.9378 44.6556 45.3871C52.9742 36.8364 62.8498 30.0536 73.7186 25.4259C84.5873 20.7983 96.2364 18.4165 108.001 18.4165ZM143.834 174.221V165.75C143.834 163.308 142.89 160.965 141.21 159.239C139.53 157.512 137.252 156.542 134.876 156.542H81.1256C78.7497 156.542 76.4711 157.512 74.7911 159.239C73.1111 160.965 72.1673 163.308 72.1673 165.75V174.221C83.047 180.732 95.4113 184.163 108.001 184.163C120.59 184.163 132.954 180.732 143.834 174.221ZM54.8777 159.764C56.2032 153.625 59.5269 148.134 64.2995 144.2C69.072 140.265 75.0077 138.122 81.1256 138.125H134.876C140.994 138.122 146.929 140.265 151.702 144.2C156.474 148.134 159.798 153.625 161.124 159.764C170.435 149.195 176.562 136.074 178.761 121.995C180.96 107.917 179.137 93.4841 173.513 80.4494C167.888 67.4148 158.704 56.3381 147.076 48.5635C135.447 40.7889 121.873 36.6505 108.001 36.6505C94.1285 36.6505 80.5545 40.7889 68.9257 48.5635C57.2969 56.3381 48.1131 67.4148 42.4887 80.4494C36.8643 93.4841 35.0411 107.917 37.2402 121.995C39.4393 136.074 45.5663 149.195 54.8777 159.764Z" fill="#2F327D"/>
</svg>
