<svg width="62" height="60" viewBox="0 0 62 60" fill="none" xmlns="http://www.w3.org/2000/svg">
<path d="M30.9999 15.2498C33.0107 15.2498 34.9763 15.8266 36.6482 16.9071C38.3201 17.9876 39.6232 19.5233 40.3927 21.3201C41.1622 23.1169 41.3635 25.0941 40.9713 27.0016C40.579 28.909 39.6107 30.6612 38.1889 32.0364C36.767 33.4116 34.9555 34.3481 32.9834 34.7276C31.0112 35.107 28.967 34.9122 27.1093 34.168C25.2516 33.4237 23.6638 32.1634 22.5467 30.5463C21.4295 28.9292 20.8333 27.028 20.8333 25.0832C20.8333 22.4752 21.9044 19.9741 23.811 18.13C25.7176 16.2858 28.3036 15.2498 30.9999 15.2498ZM30.9999 29.9998C32.0053 29.9998 32.9881 29.7115 33.8241 29.1712C34.66 28.631 35.3116 27.8631 35.6963 26.9647C36.0811 26.0663 36.1817 25.0777 35.9856 24.124C35.7895 23.1702 35.3053 22.2942 34.5944 21.6066C33.8835 20.919 32.9777 20.4507 31.9917 20.261C31.0056 20.0713 29.9835 20.1686 29.0546 20.5408C28.1258 20.9129 27.3319 21.5431 26.7733 22.3516C26.2147 23.1602 25.9166 24.1107 25.9166 25.0832C25.9166 26.3872 26.4522 27.6377 27.4055 28.5598C28.3588 29.4818 29.6518 29.9998 30.9999 29.9998ZM30.9999 5.4165C36.0269 5.4165 40.9409 6.85829 45.1207 9.55954C49.3004 12.2608 52.5582 16.1002 54.4819 20.5922C56.4056 25.0842 56.9089 30.0271 55.9282 34.7958C54.9475 39.5645 52.5268 43.9448 48.9722 47.3829C45.4177 50.8209 40.8888 53.1623 35.9585 54.1108C31.0281 55.0594 25.9177 54.5725 21.2734 52.7119C16.6291 50.8512 12.6596 47.7003 9.86676 43.6576C7.07395 39.6149 5.58328 34.862 5.58328 29.9998C5.58328 26.7715 6.2407 23.5748 7.51801 20.5922C8.79531 17.6096 10.6675 14.8996 13.0277 12.6168C15.3878 10.334 18.1897 8.52323 21.2734 7.2878C24.3571 6.05237 27.6622 5.4165 30.9999 5.4165ZM41.1666 47.0115V44.7498C41.1666 44.0978 40.8988 43.4726 40.4222 43.0115C39.9455 42.5505 39.299 42.2915 38.6249 42.2915H23.3749C22.7009 42.2915 22.0544 42.5505 21.5777 43.0115C21.1011 43.4726 20.8333 44.0978 20.8333 44.7498V47.0115C23.9201 48.7497 27.4281 49.6655 30.9999 49.6655C34.5718 49.6655 38.0798 48.7497 41.1666 47.0115ZM15.9279 43.1519C16.3039 41.5129 17.2469 40.0471 18.601 38.9967C19.9551 37.9463 21.6392 37.3741 23.3749 37.3748H38.6249C40.3607 37.3741 42.0448 37.9463 43.3989 38.9967C44.7529 40.0471 45.6959 41.5129 46.072 43.1519C48.7139 40.3302 50.4522 36.8274 51.0762 33.0688C51.7001 29.3102 51.1828 25.4572 49.587 21.9773C47.9913 18.4975 45.3857 15.5404 42.0863 13.4648C38.787 11.3892 34.9358 10.2844 30.9999 10.2844C27.0641 10.2844 23.2129 11.3892 19.9136 13.4648C16.6142 15.5404 14.0086 18.4975 12.4129 21.9773C10.8171 25.4572 10.2998 29.3102 10.9237 33.0688C11.5477 36.8274 13.286 40.3302 15.9279 43.1519Z" fill="#FDFDFD"/>
</svg>
