<svg width="56" height="40" viewBox="0 0 56 40" fill="none" xmlns="http://www.w3.org/2000/svg">
<path d="M8.75 17.25C11.7836 17.25 14.25 14.7836 14.25 11.75C14.25 8.71641 11.7836 6.25 8.75 6.25C5.71641 6.25 3.25 8.71641 3.25 11.75C3.25 14.7836 5.71641 17.25 8.75 17.25ZM47.25 17.25C50.2836 17.25 52.75 14.7836 52.75 11.75C52.75 8.71641 50.2836 6.25 47.25 6.25C44.2164 6.25 41.75 8.71641 41.75 11.75C41.75 14.7836 44.2164 17.25 47.25 17.25ZM50 20H44.5C42.9875 20 41.6211 20.6102 40.6242 21.5984C44.0875 23.4977 46.5453 26.9266 47.0781 31H52.75C54.2711 31 55.5 29.7711 55.5 28.25V25.5C55.5 22.4664 53.0336 20 50 20ZM28 20C33.3195 20 37.625 15.6945 37.625 10.375C37.625 5.05547 33.3195 0.75 28 0.75C22.6805 0.75 18.375 5.05547 18.375 10.375C18.375 15.6945 22.6805 20 28 20ZM34.6 22.75H33.8867C32.0992 23.6094 30.1141 24.125 28 24.125C25.8859 24.125 23.9094 23.6094 22.1133 22.75H21.4C15.9344 22.75 11.5 27.1844 11.5 32.65V35.125C11.5 37.4023 13.3477 39.25 15.625 39.25H40.375C42.6523 39.25 44.5 37.4023 44.5 35.125V32.65C44.5 27.1844 40.0656 22.75 34.6 22.75ZM15.3758 21.5984C14.3789 20.6102 13.0125 20 11.5 20H6C2.96641 20 0.5 22.4664 0.5 25.5V28.25C0.5 29.7711 1.72891 31 3.25 31H8.91328C9.45469 26.9266 11.9125 23.4977 15.3758 21.5984Z" fill="#21C8F6"/>
</svg>
