<svg width="59" height="42" viewBox="0 0 59 42" fill="none" xmlns="http://www.w3.org/2000/svg">
<path fill-rule="evenodd" clip-rule="evenodd" d="M11.7057 0.844239H47.2944C48.5883 0.844214 49.7048 0.844189 50.6291 0.898162C51.602 0.955014 52.5752 1.08003 53.5369 1.421C55.7051 2.19001 57.4282 3.66506 58.3262 5.52162C58.7245 6.3448 58.8705 7.17804 58.9372 8.01108C59 8.80226 59 9.75817 59 10.866V31.2329C59 32.3406 59 33.2966 58.9372 34.0879C58.8705 34.9208 58.7245 35.754 58.3262 36.5774C57.4282 38.4338 55.7051 39.909 53.5369 40.6778C52.5752 41.0188 51.602 41.1438 50.6291 41.2009C49.7048 41.2547 48.5883 41.2547 47.2944 41.2547H11.7056C10.4116 41.2547 9.2951 41.2547 8.37098 41.2009C7.39798 41.1438 6.42475 41.0188 5.46325 40.6778C3.29477 39.909 1.57188 38.4338 0.673663 36.5774C0.275413 35.754 0.129388 34.9208 0.0629835 34.0879C-5.79976e-05 33.2966 -2.82236e-05 32.3406 1.27637e-06 31.2329V10.8661C-2.82236e-05 9.7582 -5.79976e-05 8.80226 0.0629835 8.01108C0.129388 7.17804 0.275413 6.3448 0.673663 5.52162C1.57188 3.66506 3.29477 2.19001 5.46325 1.421C6.42475 1.08003 7.39798 0.955014 8.37098 0.898162C9.2951 0.844189 10.4116 0.844214 11.7057 0.844239ZM6.83648 6.59709C7.90936 5.54736 9.77306 5.44098 10.9992 6.3595L27.5574 18.7637C28.6696 19.5969 30.3304 19.5969 31.4426 18.7637L48.0009 6.3595C49.2269 5.44098 51.0908 5.54736 52.1634 6.59709C53.2363 7.64685 53.1121 9.24246 51.8861 10.161L35.3277 22.5653C31.991 25.065 27.009 25.065 23.6723 22.5653L7.11402 10.161C5.88788 9.24246 5.76362 7.64685 6.83648 6.59709Z" fill="url(#paint0_linear_667_10670)"/>
<defs>
<linearGradient id="paint0_linear_667_10670" x1="3.49342" y1="41.2547" x2="37.0076" y2="-9.48511" gradientUnits="userSpaceOnUse">
<stop stop-color="#EA5455"/>
<stop offset="1" stop-color="#F08182"/>
</linearGradient>
</defs>
</svg>
