<svg width="74" height="66" viewBox="0 0 74 66" fill="none" xmlns="http://www.w3.org/2000/svg">
<path d="M71 10.5H63.4444M71 33H52.1111M71 55.5H52.1111M18.1111 63V38.8545C18.1111 38.0745 18.1111 37.6845 18.034 37.3114C17.9656 36.9806 17.8524 36.6604 17.6975 36.3592C17.5229 36.0202 17.2775 35.7157 16.7866 35.1064L4.32453 19.6435C3.8336 19.0344 3.58816 18.7298 3.41359 18.3906C3.25874 18.0897 3.14556 17.7694 3.07714 17.4385C3 17.0654 3 16.6754 3 15.8953V9C3 6.89981 3 5.8497 3.41174 5.04754C3.77395 4.34194 4.35188 3.76826 5.0627 3.40871C5.87081 3 6.9287 3 9.04444 3H42.2889C44.4048 3 45.4626 3 46.2707 3.40871C46.9816 3.76826 47.5593 4.34194 47.9216 5.04754C48.3333 5.8497 48.3333 6.89981 48.3333 9V15.8953C48.3333 16.6754 48.3333 17.0654 48.2563 17.4385C48.1879 17.7694 48.0746 18.0897 47.9197 18.3906C47.7451 18.7298 47.4996 19.0344 47.0088 19.6435L34.5467 35.1064C34.056 35.7157 33.8104 36.0202 33.6359 36.3592C33.481 36.6604 33.3677 36.9806 33.2993 37.3114C33.2222 37.6845 33.2222 38.0745 33.2222 38.8545V51.75L18.1111 63Z" stroke="#454545" stroke-width="5" stroke-linecap="round" stroke-linejoin="round"/>
</svg>
