<svg width="59" height="37" viewBox="0 0 59 37" fill="none" xmlns="http://www.w3.org/2000/svg">
<path fill-rule="evenodd" clip-rule="evenodd" d="M11.7057 0.907716H47.2944C48.5883 0.907693 49.7048 0.907671 50.6291 0.955593C51.602 1.00607 52.5752 1.11707 53.5369 1.41981C55.7051 2.1026 57.4282 3.41227 58.3262 5.06067C58.7245 5.79156 58.8705 6.53138 58.9372 7.27102C59 7.97349 59 8.82223 59 9.80589V27.8892C59 28.8728 59 29.7215 58.9372 30.4241C58.8705 31.1637 58.7245 31.9035 58.3262 32.6345C57.4282 34.2827 55.7051 35.5926 53.5369 36.2752C52.5752 36.5779 51.602 36.6889 50.6291 36.7396C49.7048 36.7874 48.5883 36.7874 47.2944 36.7874H11.7056C10.4116 36.7874 9.2951 36.7874 8.37098 36.7396C7.39798 36.6889 6.42475 36.5779 5.46325 36.2752C3.29477 35.5926 1.57188 34.2827 0.673663 32.6345C0.275413 31.9035 0.129388 31.1637 0.0629835 30.4241C-5.79976e-05 29.7215 -2.82236e-05 28.8728 1.27637e-06 27.8892V9.80591C-2.82236e-05 8.82225 -5.79976e-05 7.97349 0.0629835 7.27102C0.129388 6.53138 0.275413 5.79156 0.673663 5.06067C1.57188 3.41227 3.29477 2.1026 5.46325 1.41981C6.42475 1.11707 7.39798 1.00607 8.37098 0.955593C9.2951 0.907671 10.4116 0.907693 11.7057 0.907716ZM6.83648 6.01556C7.90936 5.08352 9.77306 4.98907 10.9992 5.80462L27.5574 16.8181C28.6696 17.5579 30.3304 17.5579 31.4426 16.8181L48.0009 5.80462C49.2269 4.98907 51.0908 5.08352 52.1634 6.01556C53.2363 6.94763 53.1121 8.36434 51.8861 9.17988L35.3277 20.1935C31.991 22.4129 27.009 22.4129 23.6723 20.1935L7.11402 9.17988C5.88788 8.36434 5.76362 6.94763 6.83648 6.01556Z" fill="url(#paint0_linear_667_93)"/>
<defs>
<linearGradient id="paint0_linear_667_93" x1="3.49342" y1="36.7874" x2="31.7292" y2="-11.3591" gradientUnits="userSpaceOnUse">
<stop stop-color="#EA5455"/>
<stop offset="1" stop-color="#F08182"/>
</linearGradient>
</defs>
</svg>
